<?xml version="1.0" encoding="utf-8"?>
<!-- Generator: Adobe Illustrator 24.0.3, SVG Export Plug-In . SVG Version: 6.00 Build 0)  -->
<svg version="1.1" id="Layer_1" xmlns="http://www.w3.org/2000/svg" xmlns:xlink="http://www.w3.org/1999/xlink" x="0px" y="0px"
	 viewBox="0 0 1000 280" style="enable-background:new 0 0 1000 280;" xml:space="preserve">
<style type="text/css">
	.st0{fill:url(#SVGID_1_);}
	.st1{fill:none;stroke:#FFFFFF;stroke-width:26.8084;stroke-miterlimit:10;}
	.st2{fill:none;stroke:#FFFFFF;stroke-width:51.7915;stroke-miterlimit:10;}
	.st3{fill:url(#SVGID_2_);}
	.st4{fill:none;stroke:#FFFFFF;stroke-width:14.6902;stroke-miterlimit:10;}
	.st5{fill:none;stroke:#FFFFFF;stroke-width:14.5222;stroke-miterlimit:10;}
	.st6{fill:none;stroke:#000000;stroke-width:14.6902;stroke-miterlimit:10;}
	.st7{fill:none;stroke:#000000;stroke-width:14.5222;stroke-miterlimit:10;}
	.st8{fill:#00C9FF;}
	.st9{fill:#C45CF5;}
</style>
<g>
	<linearGradient id="SVGID_1_" gradientUnits="userSpaceOnUse" x1="-1118.4789" y1="772.7286" x2="-801.4468" y2="1321.8442">
		<stop  offset="0" style="stop-color:#C45CF5"/>
		<stop  offset="1" style="stop-color:#00C9FF"/>
	</linearGradient>
	<path class="st0" d="M-1218.77,1206.3V888.27c0-55.11,44.68-99.79,99.79-99.79h318.03c55.11,0,99.79,44.68,99.79,99.79v318.03
		c0,55.11-44.68,99.79-99.79,99.79h-318.03C-1174.09,1306.1-1218.77,1261.42-1218.77,1206.3z"/>
	<g>
		<path class="st1" d="M-959.96,914.01c-73.61,0-133.28,59.67-133.28,133.28c0,73.61,59.67,133.27,133.28,133.27
			c73.61,0,133.28-59.67,133.28-133.27V914.01H-959.96z"/>
		<line class="st1" x1="-928.33" y1="1015.65" x2="-826.69" y2="914.01"/>
	</g>
</g>
<g>
	<path class="st2" d="M-1649.95-117.48c-142.2,0-257.48,115.28-257.48,257.48c0,142.2,115.28,257.47,257.48,257.47
		c142.2,0,257.48-115.28,257.48-257.47v-257.48H-1649.95z"/>
	<line class="st2" x1="-1588.83" y1="78.88" x2="-1392.47" y2="-117.48"/>
</g>
<linearGradient id="SVGID_2_" gradientUnits="userSpaceOnUse" x1="-904.6553" y1="-390.4214" x2="-292.1775" y2="670.4214">
	<stop  offset="0" style="stop-color:#C45CF5"/>
	<stop  offset="1" style="stop-color:#00C9FF"/>
</linearGradient>
<path class="st3" d="M-1098.42,447.21v-614.41c0-106.48,86.32-192.79,192.79-192.79h614.41c106.48,0,192.79,86.32,192.79,192.79
	v614.41c0,106.48-86.32,192.79-192.79,192.79h-614.41C-1012.1,640-1098.42,553.68-1098.42,447.21z"/>
<g>
	<path class="st2" d="M-598.42-117.48c-142.2,0-257.48,115.28-257.48,257.48c0,142.2,115.28,257.47,257.48,257.47
		c142.2,0,257.48-115.28,257.48-257.47v-257.48H-598.42z"/>
	<line class="st2" x1="-537.3" y1="78.88" x2="-340.94" y2="-117.48"/>
</g>
<g>
	<g>
		<path class="st4" d="M108.23,363.13c-40.33,0-73.03,32.7-73.03,73.03c0,40.33,32.7,73.03,73.03,73.03
			c40.33,0,73.03-32.7,73.03-73.03v-73.03H108.23z"/>
		<line class="st4" x1="125.57" y1="418.83" x2="181.26" y2="363.13"/>
	</g>
	<g>
		<path class="st5" d="M230.19,355.98v80.19l0.45,7.93c3.96,36.6,34.93,65.1,72.58,65.1c40.33,0,73.03-32.7,73.03-73.03v-80.19"/>
		<line class="st5" x1="303.22" y1="355.98" x2="303.22" y2="436.16"/>
	</g>
	<g>
		<path class="st5" d="M574.82,363.36h-80.19l-7.93,0.45c-36.6,3.96-65.1,34.93-65.1,72.58c0,40.33,32.7,73.03,73.03,73.03h80.19"/>
		<line class="st5" x1="574.82" y1="436.39" x2="494.63" y2="436.39"/>
	</g>
	<g>
		<path class="st5" d="M964.8,363.36h-80.19l-7.93,0.45c-36.6,3.96-65.1,34.93-65.1,72.58c0,40.33,32.7,73.03,73.03,73.03h80.19"/>
		<line class="st5" x1="964.8" y1="436.39" x2="884.61" y2="436.39"/>
	</g>
	<g>
		<g>
			<g>
				<path class="st5" d="M765.01,399.42c0-16.18-14.73-36.29-55.06-36.29h-91"/>
				<path class="st5" d="M765.01,399.42c0,16.18-14.73,36.97-55.06,36.97H695.6"/>
			</g>
			<line class="st5" x1="690.45" y1="434.22" x2="767.45" y2="512.4"/>
		</g>
		<line class="st5" x1="619.59" y1="355.98" x2="619.59" y2="516.77"/>
	</g>
</g>
<g>
	<g>
		<path class="st6" d="M108.23,66.76c-40.33,0-73.03,32.7-73.03,73.03c0,40.33,32.7,73.03,73.03,73.03
			c40.33,0,73.03-32.7,73.03-73.03V66.76H108.23z"/>
		<line class="st6" x1="125.57" y1="122.46" x2="181.26" y2="66.76"/>
	</g>
	<g>
		<path class="st7" d="M230.19,59.61v80.19l0.45,7.93c3.96,36.6,34.93,65.1,72.58,65.1c40.33,0,73.03-32.7,73.03-73.03V59.61"/>
		<line class="st7" x1="303.22" y1="59.61" x2="303.22" y2="139.79"/>
	</g>
	<g>
		<path class="st7" d="M574.82,66.99h-80.19l-7.93,0.45c-36.6,3.96-65.1,34.93-65.1,72.58c0,40.33,32.7,73.03,73.03,73.03h80.19"/>
		<line class="st7" x1="574.82" y1="140.02" x2="494.63" y2="140.02"/>
	</g>
	<g>
		<path class="st7" d="M964.8,66.99h-80.19l-7.93,0.45c-36.6,3.96-65.1,34.93-65.1,72.58c0,40.33,32.7,73.03,73.03,73.03h80.19"/>
		<line class="st7" x1="964.8" y1="140.02" x2="884.61" y2="140.02"/>
	</g>
	<g>
		<g>
			<g>
				<path class="st7" d="M765.01,103.05c0-16.18-14.73-36.29-55.06-36.29h-91"/>
				<path class="st7" d="M765.01,103.05c0,16.18-14.73,36.97-55.06,36.97H695.6"/>
			</g>
			<line class="st7" x1="690.45" y1="137.85" x2="767.45" y2="216.02"/>
		</g>
		<line class="st7" x1="619.59" y1="59.61" x2="619.59" y2="220.39"/>
	</g>
</g>
<g>
	<g>
		<text transform="matrix(1 0 0 1 -427.5771 1117.2311)"><tspan x="0" y="0" style="font-family:'Roboto-Medium'; font-size:26.0579px;">#00C9FF</tspan><tspan x="0" y="37.23" style="font-family:'Roboto-Medium'; font-size:26.0579px;">RGB : 0 / 201 / 255 </tspan></text>
		<rect x="-571.9" y="1073.69" class="st8" width="109.08" height="109.08"/>
	</g>
	<g>
		<text transform="matrix(1 0 0 1 -427.5771 942.8561)"><tspan x="0" y="0" style="font-family:'Roboto-Medium'; font-size:26.0579px;">#CC66FF</tspan><tspan x="0" y="37.23" style="font-family:'Roboto-Medium'; font-size:26.0579px;">RGB : 196 / 92 / 245 </tspan></text>
		<rect x="-571.9" y="899.31" class="st9" width="109.08" height="109.08"/>
	</g>
</g>
</svg>
